<?xml version="1.0" standalone="no"?>
<!DOCTYPE svg PUBLIC "-//W3C//DTD SVG 20010904//EN"
 "http://www.w3.org/TR/2001/REC-SVG-20010904/DTD/svg10.dtd">
<svg version="1.0" xmlns="http://www.w3.org/2000/svg"
 width="2408.000000pt" height="2408.000000pt" viewBox="0 0 2408.000000 2408.000000"
 preserveAspectRatio="xMidYMid meet">
<metadata>
Created by potrace 1.11, written by Peter Selinger 2001-2013
</metadata>
<g transform="translate(0.000000,2408.000000) scale(0.100000,-0.100000)"
fill="#000000" stroke="none">
<path d="M23960 20786 c-58 -28 -166 -80 -240 -115 -74 -36 -198 -95 -275
-131 -253 -121 -369 -176 -405 -192 -19 -9 -57 -26 -85 -38 -161 -73 -329
-136 -630 -240 -279 -95 -866 -262 -1074 -305 -9 -2 -36 -8 -61 -14 -25 -7
-52 -13 -60 -15 -120 -29 -705 -152 -770 -161 -14 -2 -86 -15 -160 -29 -75
-14 -149 -27 -165 -30 -17 -3 -109 -18 -205 -35 -96 -16 -195 -32 -220 -36
-25 -3 -67 -10 -95 -15 -27 -5 -70 -12 -95 -15 -25 -3 -56 -8 -70 -10 -14 -2
-43 -7 -65 -10 -23 -3 -50 -7 -60 -9 -19 -3 -84 -12 -150 -20 -47 -6 -118 -16
-145 -21 -14 -2 -43 -7 -65 -9 -111 -14 -213 -27 -240 -31 -16 -2 -52 -7 -80
-10 -27 -3 -66 -8 -85 -11 -19 -3 -60 -7 -90 -10 -30 -3 -66 -7 -80 -9 -14 -2
-53 -7 -88 -10 -35 -4 -71 -8 -80 -10 -9 -1 -51 -6 -92 -10 -41 -4 -82 -8 -90
-10 -8 -2 -53 -6 -100 -10 -47 -4 -94 -9 -104 -11 -10 -2 -51 -6 -90 -9 -39
-3 -87 -8 -106 -10 -49 -6 -124 -13 -200 -20 -36 -3 -85 -8 -110 -10 -25 -3
-79 -7 -120 -10 -41 -3 -91 -7 -110 -10 -19 -2 -72 -7 -116 -10 -45 -3 -101
-7 -125 -10 -51 -5 -163 -13 -269 -20 -41 -3 -93 -7 -115 -9 -22 -2 -92 -7
-155 -11 -63 -4 -131 -8 -150 -10 -19 -2 -89 -6 -155 -10 -66 -3 -145 -8 -175
-10 -55 -4 -151 -10 -350 -20 -58 -3 -141 -8 -185 -10 -92 -5 -321 -15 -445
-20 -466 -18 -626 -23 -965 -32 -323 -8 -1768 -10 -1968 -2 -71 3 -130 2 -133
-2 -6 -11 22 -17 111 -24 44 -3 96 -8 115 -10 47 -5 149 -14 235 -21 39 -2 90
-6 115 -9 40 -3 137 -10 285 -20 28 -2 91 -7 140 -10 50 -3 126 -7 170 -10 78
-5 142 -9 335 -20 52 -3 140 -7 195 -10 55 -2 147 -7 205 -10 163 -8 393 -17
795 -30 467 -15 784 -19 1605 -19 921 -1 1249 4 1875 29 166 6 315 13 445 20
52 3 138 7 190 10 52 3 127 7 165 10 39 2 115 7 170 10 55 4 120 8 145 10 25
2 86 7 135 10 50 4 106 8 125 10 19 2 80 6 135 10 55 4 109 9 120 11 11 2 62
6 115 9 52 3 102 8 110 10 8 2 49 7 90 10 41 3 91 8 110 10 101 12 140 16 190
20 51 4 88 9 170 20 19 3 60 8 91 10 31 3 64 7 75 9 10 2 48 7 84 11 36 4 72
9 81 10 9 2 38 6 65 9 70 9 99 13 184 26 41 6 93 13 115 16 22 3 51 7 65 10
14 3 41 8 60 10 19 2 45 6 58 9 12 3 42 8 66 11 24 2 55 7 67 10 13 2 40 7 59
10 51 8 202 35 295 54 28 5 61 11 75 14 74 12 193 36 199 40 3 2 26 7 51 11
25 4 47 8 51 10 3 2 21 7 40 10 19 3 54 11 79 16 25 6 52 12 60 14 8 2 44 11
80 20 36 9 75 19 88 21 12 3 62 15 112 28 l90 24 -14 -31 c-13 -29 -36 -80
-119 -257 -16 -36 -40 -87 -52 -115 -13 -27 -42 -90 -65 -140 -41 -86 -73
-157 -128 -275 -13 -30 -51 -111 -83 -179 -33 -68 -59 -125 -59 -126 0 -2 -34
-74 -75 -160 -41 -87 -75 -159 -75 -160 0 -2 -35 -76 -79 -166 -43 -90 -88
-184 -99 -209 -18 -40 -78 -166 -228 -478 -103 -213 -759 -1529 -852 -1707
-211 -408 -270 -520 -452 -860 -90 -168 -114 -212 -140 -260 -15 -27 -45 -81
-65 -120 -36 -66 -186 -340 -228 -415 -64 -114 -214 -383 -240 -430 -16 -30
-33 -59 -37 -65 -4 -5 -21 -35 -38 -65 -85 -155 -508 -878 -633 -1080 -5 -8
-79 -130 -165 -270 -86 -140 -209 -337 -273 -438 -64 -100 -123 -194 -131
-208 -22 -36 -263 -407 -272 -419 -5 -5 -77 -113 -162 -240 -84 -126 -182
-272 -217 -323 -104 -151 -246 -355 -269 -387 -166 -233 -238 -334 -250 -352
-16 -24 -239 -325 -264 -358 -9 -11 -88 -116 -176 -233 -142 -188 -220 -290
-304 -397 -247 -312 -505 -633 -565 -701 -20 -22 -56 -65 -81 -94 -44 -53
-256 -293 -349 -395 -64 -69 -544 -549 -611 -610 -30 -28 -93 -84 -140 -125
-47 -41 -87 -77 -90 -80 -3 -3 -34 -30 -70 -60 -35 -30 -71 -61 -78 -68 -8 -7
-89 -73 -181 -146 -220 -177 -473 -361 -706 -514 -104 -68 -202 -133 -217
-143 -15 -11 -30 -19 -34 -19 -3 0 -18 -9 -33 -19 -111 -79 -743 -415 -951
-505 -36 -16 -92 -41 -125 -56 -157 -73 -490 -202 -740 -288 -119 -41 -405
-131 -436 -137 -10 -2 -66 -17 -125 -33 -60 -16 -122 -33 -139 -37 -16 -5 -34
-9 -40 -11 -15 -4 -327 -75 -350 -80 -11 -2 -43 -8 -71 -14 -28 -6 -64 -13
-80 -16 -16 -2 -63 -11 -104 -19 -41 -8 -88 -17 -105 -19 -34 -6 -212 -33
-267 -41 -90 -12 -244 -32 -313 -40 -27 -2 -68 -7 -90 -9 -77 -8 -160 -16
-235 -22 -41 -3 -95 -7 -120 -9 -346 -27 -1141 -27 -1545 0 -22 1 -87 6 -145
9 -58 4 -121 9 -140 11 -19 2 -73 7 -120 11 -46 3 -96 8 -110 10 -14 1 -59 6
-100 9 -41 4 -81 8 -90 10 -8 2 -44 6 -80 10 -36 3 -76 8 -90 10 -14 2 -50 6
-80 10 -30 3 -66 8 -80 10 -14 3 -45 7 -70 10 -25 3 -56 7 -70 10 -14 2 -45 7
-70 10 -25 3 -127 19 -226 36 -100 16 -195 31 -210 34 -27 3 -176 30 -234 40
-14 3 -41 8 -60 11 -19 3 -37 7 -40 9 -3 2 -26 6 -50 10 -25 4 -133 24 -240
46 -107 22 -204 41 -215 43 -11 3 -40 9 -65 15 -25 5 -58 12 -75 15 -42 8 -61
12 -136 30 -37 8 -78 17 -90 20 -34 7 -233 54 -299 70 -49 13 -240 71 -360
110 -587 190 -1262 512 -1760 840 -447 294 -811 644 -978 941 -94 168 -233
507 -258 630 -1 6 -7 29 -13 52 -20 74 -50 249 -58 340 -13 152 -5 534 11 562
2 3 7 37 11 76 4 38 8 72 10 76 2 3 7 21 10 40 3 19 8 41 10 49 2 8 7 30 10
49 9 53 61 240 99 353 167 504 504 1136 890 1668 88 121 291 379 355 450 18
19 62 69 98 110 147 166 448 455 630 608 255 214 576 440 797 562 32 17 82 46
110 62 45 27 322 163 386 190 56 24 68 29 140 56 99 39 176 65 282 97 85 25
106 31 158 41 14 3 32 7 40 9 107 32 391 52 485 34 103 -19 129 -31 172 -76
71 -74 143 -193 159 -265 2 -10 7 -28 10 -40 28 -113 40 -472 20 -643 -3 -27
-8 -88 -11 -135 -3 -47 -8 -96 -10 -110 -2 -14 -7 -64 -10 -112 -3 -48 -7 -95
-9 -105 -2 -10 -7 -58 -11 -108 -4 -49 -8 -102 -10 -117 -2 -14 -6 -59 -9
-100 -7 -73 -12 -126 -21 -215 -3 -27 -7 -75 -10 -108 -3 -33 -7 -75 -9 -93
-3 -18 -8 -67 -11 -110 -4 -42 -9 -84 -10 -92 -2 -8 -6 -49 -10 -90 -4 -41 -8
-82 -10 -90 -1 -8 -6 -49 -10 -90 -4 -41 -9 -83 -11 -92 -1 -10 -5 -48 -9 -86
-3 -38 -7 -78 -9 -89 -3 -11 -7 -44 -11 -74 -7 -67 -15 -126 -20 -159 -2 -14
-7 -49 -10 -79 -4 -30 -8 -61 -10 -70 -5 -27 -14 -93 -20 -141 -3 -25 -8 -56
-10 -70 -6 -35 -13 -77 -20 -130 -3 -25 -8 -56 -10 -70 -2 -14 -7 -45 -10 -70
-3 -25 -8 -56 -10 -70 -7 -39 -12 -73 -35 -240 -22 -162 -24 -177 -35 -250 -4
-25 -9 -58 -11 -75 -2 -16 -6 -41 -9 -55 -3 -14 -7 -41 -10 -60 -3 -19 -7 -46
-10 -60 -9 -46 -17 -95 -20 -115 -11 -68 -18 -105 -26 -144 -5 -24 -12 -65
-15 -90 -3 -25 -7 -53 -9 -61 -2 -8 -7 -31 -10 -50 -12 -72 -15 -88 -40 -235
-14 -82 -28 -161 -30 -175 -15 -77 -17 -104 -8 -95 11 10 115 146 212 275 31
41 58 77 61 80 4 3 56 70 116 150 96 126 205 269 398 520 63 82 278 353 286
360 3 3 30 34 60 70 445 527 991 1050 1580 1513 179 141 623 457 641 457 3 0
6 -6 6 -12 0 -7 4 -40 7 -73 21 -190 27 -257 40 -485 13 -216 17 -312 31 -780
3 -85 7 -202 9 -260 9 -219 18 -478 20 -552 0 -43 3 -78 6 -78 13 0 331 309
920 894 434 430 606 597 805 778 89 82 106 97 186 168 40 36 77 70 83 75 6 6
45 39 86 75 41 36 80 70 86 75 6 6 33 28 60 50 27 22 78 65 114 95 134 114
268 219 273 214 3 -3 2 -20 -3 -37 -4 -18 -13 -70 -20 -117 -13 -94 -15 -103
-35 -210 -40 -212 -74 -400 -80 -440 -3 -25 -8 -58 -11 -75 -5 -36 -12 -104
-20 -200 -3 -38 -10 -97 -14 -130 -9 -67 -6 -570 4 -625 3 -19 9 -48 12 -65 3
-16 8 -43 10 -60 13 -84 39 -175 50 -175 9 0 12 41 12 162 0 169 5 246 27 406
22 155 70 387 124 603 28 108 52 207 55 220 2 13 12 53 21 89 9 36 18 74 20
85 7 50 80 311 140 506 57 182 167 495 287 814 48 128 67 185 63 185 -5 0 -9
-2 -255 -145 -102 -60 -198 -116 -215 -125 -119 -67 -619 -387 -660 -423 -5
-4 -66 -49 -135 -98 -69 -49 -132 -95 -140 -102 -8 -7 -60 -46 -115 -87 -55
-41 -105 -79 -111 -85 -6 -5 -29 -23 -50 -40 -63 -49 -326 -267 -364 -301 -45
-41 -228 -202 -259 -229 -47 -40 -216 -202 -314 -299 l-99 -100 8 175 c13 316
7 896 -11 1139 -2 25 -6 88 -10 140 -3 52 -8 113 -10 135 -2 22 -6 83 -10 135
-4 52 -8 115 -10 140 -3 25 -7 88 -11 140 -3 52 -7 103 -8 113 0 9 -5 17 -11
18 -10 0 -221 -135 -625 -400 -113 -74 -207 -137 -210 -140 -3 -4 -25 -19 -50
-35 -108 -69 -421 -303 -630 -470 -334 -267 -591 -499 -919 -827 -238 -237
-471 -485 -471 -501 0 -5 -4 -8 -10 -8 -5 0 -7 15 -5 32 2 18 7 62 10 98 4 36
9 78 11 94 3 16 7 54 9 85 7 86 15 181 20 236 7 69 18 279 30 545 4 101 12
332 20 640 2 80 7 246 11 370 14 396 10 716 -10 820 -3 14 -10 54 -16 90 -27
150 -96 319 -183 449 -62 93 -192 229 -262 276 -138 91 -337 140 -570 139 -92
-1 -256 -12 -278 -19 -7 -2 -30 -6 -52 -9 -417 -53 -1000 -276 -1520 -580
-110 -65 -287 -177 -295 -187 -3 -3 -16 -12 -28 -18 -74 -39 -452 -325 -622
-471 -28 -25 -62 -53 -73 -63 -147 -126 -460 -437 -612 -608 -314 -354 -612
-756 -839 -1132 -106 -174 -206 -348 -206 -357 0 -4 -9 -19 -21 -34 -11 -14
-17 -26 -14 -26 4 0 2 -6 -4 -13 -18 -22 -166 -325 -216 -442 -114 -268 -218
-580 -259 -780 -23 -115 -47 -248 -52 -290 -3 -27 -7 -56 -9 -63 -19 -58 -28
-551 -13 -700 16 -152 49 -337 84 -472 14 -52 27 -103 29 -112 2 -10 20 -66
41 -125 144 -423 302 -703 567 -1006 525 -600 1412 -1171 2482 -1597 265 -105
695 -250 815 -274 45 -9 203 -48 268 -67 20 -5 44 -11 52 -13 8 -1 24 -5 35
-9 11 -3 31 -9 45 -11 14 -3 45 -10 70 -16 25 -5 54 -11 65 -14 11 -2 47 -11
80 -19 48 -13 312 -73 400 -92 122 -26 457 -94 480 -99 17 -3 57 -10 90 -15
33 -6 70 -13 81 -15 12 -2 39 -7 60 -10 22 -4 46 -8 54 -11 8 -2 35 -6 60 -9
25 -4 56 -8 70 -10 41 -7 282 -45 327 -51 67 -9 295 -38 398 -51 22 -2 56 -6
75 -9 19 -2 58 -7 85 -9 28 -3 79 -8 115 -12 75 -7 91 -9 220 -19 52 -4 111
-8 130 -10 154 -14 408 -20 915 -20 512 0 704 5 867 20 20 2 72 7 115 10 43 3
101 8 128 11 28 3 70 7 95 9 25 3 64 7 87 10 24 3 64 7 90 10 43 5 78 10 153
20 14 2 48 6 75 10 49 6 205 30 255 40 14 2 41 7 60 9 19 3 45 7 56 10 12 2
39 7 60 10 22 4 46 8 54 11 8 2 31 6 50 9 19 3 64 12 100 20 36 8 81 18 100
21 19 3 64 13 100 21 36 9 74 17 85 20 140 29 594 151 745 200 8 3 16 5 17 5
5 0 417 141 442 151 14 6 28 12 31 13 13 3 288 110 340 132 19 8 49 21 65 29
17 7 89 39 160 70 290 125 740 358 1055 547 334 199 691 443 1021 696 46 36
86 67 89 70 3 4 23 19 45 36 22 16 51 39 65 51 14 12 70 59 125 105 341 284
793 714 1071 1018 33 36 70 77 84 92 14 15 48 53 75 84 28 32 57 65 66 74 30
31 187 218 303 361 65 80 126 154 135 165 9 11 75 94 147 185 421 533 823
1070 1155 1545 345 491 676 987 1000 1496 114 179 214 339 223 355 9 16 30 49
46 74 16 25 40 63 53 85 13 22 107 177 209 345 154 255 257 428 382 643 31 54
300 525 368 647 36 63 107 192 158 285 51 94 103 188 115 210 63 114 220 406
280 520 37 72 85 162 105 200 91 171 252 487 494 971 252 502 332 664 506
1029 215 447 262 548 410 866 40 85 84 181 100 214 15 33 53 116 85 184 31 69
67 148 80 175 27 58 72 158 105 231 13 28 35 77 50 110 15 33 37 83 50 110 46
103 123 272 151 333 16 35 29 65 29 67 0 2 15 36 34 77 18 40 79 179 136 308
105 240 124 284 161 368 12 26 116 265 231 532 115 267 215 499 222 515 8 17
40 91 71 165 32 74 66 153 76 175 64 142 170 398 167 404 -2 4 -50 -15 -108
-43z"/>
</g>
</svg>
